<svg xmlns="http://www.w3.org/2000/svg" version="1.1" xmlns:xlink="http://www.w3.org/1999/xlink" xmlns:svgjs="http://svgjs.dev/svgjs" width="1440" height="560" preserveAspectRatio="none" viewBox="0 0 1440 560"><g mask="url(&quot;#SvgjsMask1000&quot;)" fill="none"><rect width="1440" height="560" x="0" y="0" fill="#0e2a47"></rect><path d="M-75.17 370.67L-75.17 370.67" stroke="#132e65" stroke-width="1.5"></path><path d="M-75.17 370.67L78.68 370.02" stroke="#132e65" stroke-width="1.5"></path><path d="M-75.17 370.67L-99.37 538.23" stroke="#132e65" stroke-width="1.5"></path><path d="M-75.17 370.67L71.01 557.72" stroke="#132e65" stroke-width="1.5"></path><path d="M-99.37 538.23L-99.37 538.23" stroke="#132e65" stroke-width="1.5"></path><path d="M-99.37 538.23L-73.11 667.35" stroke="#132e65" stroke-width="1.5"></path><path d="M-99.37 538.23L71.01 557.72" stroke="#132e65" stroke-width="1.5"></path><path d="M-73.11 667.35L-73.11 667.35" stroke="#132e65" stroke-width="1.5"></path><path d="M-73.11 667.35L101.96 645.51" stroke="#132e65" stroke-width="1.5"></path><path d="M-73.11 667.35L71.01 557.72" stroke="#132e65" stroke-width="1.5"></path><path d="M-73.11 667.35L200.42 645.26" stroke="#132e65" stroke-width="1.5"></path><path d="M-73.11 667.35L-75.17 370.67" stroke="#132e65" stroke-width="1.5"></path><path d="M78.68 370.02L78.68 370.02" stroke="#132e65" stroke-width="1.5"></path><path d="M78.68 370.02L235.26 345.52" stroke="#132e65" stroke-width="1.5"></path><path d="M71.01 557.72L71.01 557.72" stroke="#132e65" stroke-width="1.5"></path><path d="M71.01 557.72L101.96 645.51" stroke="#132e65" stroke-width="1.5"></path><path d="M71.01 557.72L200.42 645.26" stroke="#132e65" stroke-width="1.5"></path><path d="M101.96 645.51L101.96 645.51" stroke="#132e65" stroke-width="1.5"></path><path d="M101.96 645.51L200.42 645.26" stroke="#132e65" stroke-width="1.5"></path><path d="M101.96 645.51L259.61 523.36" stroke="#132e65" stroke-width="1.5"></path><path d="M101.96 645.51L-99.37 538.23" stroke="#132e65" stroke-width="1.5"></path><path d="M235.26 345.52L235.26 345.52" stroke="#132e65" stroke-width="1.5"></path><path d="M235.26 345.52L404.83 402.5" stroke="#132e65" stroke-width="1.5"></path><path d="M235.26 345.52L259.61 523.36" stroke="#132e65" stroke-width="1.5"></path><path d="M235.26 345.52L410 545.41" stroke="#132e65" stroke-width="1.5"></path><path d="M259.61 523.36L259.61 523.36" stroke="#132e65" stroke-width="1.5"></path><path d="M259.61 523.36L200.42 645.26" stroke="#132e65" stroke-width="1.5"></path><path d="M259.61 523.36L410 545.41" stroke="#132e65" stroke-width="1.5"></path><path d="M200.42 645.26L200.42 645.26" stroke="#132e65" stroke-width="1.5"></path><path d="M404.83 402.5L404.83 402.5" stroke="#132e65" stroke-width="1.5"></path><path d="M404.83 402.5L410 545.41" stroke="#132e65" stroke-width="1.5"></path><path d="M410 545.41L410 545.41" stroke="#132e65" stroke-width="1.5"></path><path d="M410 545.41L394.49 654.29" stroke="#132e65" stroke-width="1.5"></path><path d="M410 545.41L526.76 553.31" stroke="#132e65" stroke-width="1.5"></path><path d="M394.49 654.29L394.49 654.29" stroke="#132e65" stroke-width="1.5"></path><path d="M394.49 654.29L560.4 654.83" stroke="#132e65" stroke-width="1.5"></path><path d="M394.49 654.29L526.76 553.31" stroke="#132e65" stroke-width="1.5"></path><path d="M394.49 654.29L259.61 523.36" stroke="#132e65" stroke-width="1.5"></path><path d="M394.49 654.29L200.42 645.26" stroke="#132e65" stroke-width="1.5"></path><path d="M526.76 553.31L526.76 553.31" stroke="#132e65" stroke-width="1.5"></path><path d="M526.76 553.31L560.4 654.83" stroke="#132e65" stroke-width="1.5"></path><path d="M560.4 654.83L560.4 654.83" stroke="#132e65" stroke-width="1.5"></path><path d="M560.4 654.83L695.25 681.06" stroke="#132e65" stroke-width="1.5"></path><path d="M656.67 235.87L656.67 235.87" stroke="#132e65" stroke-width="1.5"></path><path d="M656.67 235.87L704.29 365.88" stroke="#132e65" stroke-width="1.5"></path><path d="M656.67 235.87L823.59 253.82" stroke="#132e65" stroke-width="1.5"></path><path d="M704.29 365.88L704.29 365.88" stroke="#132e65" stroke-width="1.5"></path><path d="M704.29 365.88L816.4 387.52" stroke="#132e65" stroke-width="1.5"></path><path d="M704.29 365.88L823.59 253.82" stroke="#132e65" stroke-width="1.5"></path><path d="M704.29 365.88L687.06 541.44" stroke="#132e65" stroke-width="1.5"></path><path d="M687.06 541.44L687.06 541.44" stroke="#132e65" stroke-width="1.5"></path><path d="M687.06 541.44L695.25 681.06" stroke="#132e65" stroke-width="1.5"></path><path d="M687.06 541.44L831.65 530.41" stroke="#132e65" stroke-width="1.5"></path><path d="M687.06 541.44L526.76 553.31" stroke="#132e65" stroke-width="1.5"></path><path d="M687.06 541.44L560.4 654.83" stroke="#132e65" stroke-width="1.5"></path><path d="M695.25 681.06L695.25 681.06" stroke="#132e65" stroke-width="1.5"></path><path d="M695.25 681.06L812.81 711.46" stroke="#132e65" stroke-width="1.5"></path><path d="M823.59 253.82L823.59 253.82" stroke="#132e65" stroke-width="1.5"></path><path d="M823.59 253.82L816.4 387.52" stroke="#132e65" stroke-width="1.5"></path><path d="M823.59 253.82L1011.45 228.27" stroke="#132e65" stroke-width="1.5"></path><path d="M816.4 387.52L816.4 387.52" stroke="#132e65" stroke-width="1.5"></path><path d="M816.4 387.52L831.65 530.41" stroke="#132e65" stroke-width="1.5"></path><path d="M816.4 387.52L971.64 395.01" stroke="#132e65" stroke-width="1.5"></path><path d="M831.65 530.41L831.65 530.41" stroke="#132e65" stroke-width="1.5"></path><path d="M831.65 530.41L984.75 542" stroke="#132e65" stroke-width="1.5"></path><path d="M831.65 530.41L812.81 711.46" stroke="#132e65" stroke-width="1.5"></path><path d="M831.65 530.41L981.82 641.62" stroke="#132e65" stroke-width="1.5"></path><path d="M812.81 711.46L812.81 711.46" stroke="#132e65" stroke-width="1.5"></path><path d="M812.81 711.46L981.82 641.62" stroke="#132e65" stroke-width="1.5"></path><path d="M812.81 711.46L687.06 541.44" stroke="#132e65" stroke-width="1.5"></path><path d="M812.81 711.46L984.75 542" stroke="#132e65" stroke-width="1.5"></path><path d="M981.68 -96.83L981.68 -96.83" stroke="#132e65" stroke-width="1.5"></path><path d="M981.68 -96.83L1091.96 -59.73" stroke="#132e65" stroke-width="1.5"></path><path d="M981.68 -96.83L1299.31 -93.33" stroke="#132e65" stroke-width="1.5"></path><path d="M981.68 -96.83L1011.45 228.27" stroke="#132e65" stroke-width="1.5"></path><path d="M981.68 -96.83L1312.33 87.05" stroke="#132e65" stroke-width="1.5"></path><path d="M981.68 -96.83L1126.58 253.46" stroke="#132e65" stroke-width="1.5"></path><path d="M981.68 -96.83L823.59 253.82" stroke="#132e65" stroke-width="1.5"></path><path d="M1011.45 228.27L1011.45 228.27" stroke="#132e65" stroke-width="1.5"></path><path d="M1011.45 228.27L1126.58 253.46" stroke="#132e65" stroke-width="1.5"></path><path d="M1011.45 228.27L1092.02 361.79" stroke="#132e65" stroke-width="1.5"></path><path d="M1011.45 228.27L971.64 395.01" stroke="#132e65" stroke-width="1.5"></path><path d="M971.64 395.01L971.64 395.01" stroke="#132e65" stroke-width="1.5"></path><path d="M971.64 395.01L1092.02 361.79" stroke="#132e65" stroke-width="1.5"></path><path d="M971.64 395.01L984.75 542" stroke="#132e65" stroke-width="1.5"></path><path d="M984.75 542L984.75 542" stroke="#132e65" stroke-width="1.5"></path><path d="M984.75 542L981.82 641.62" stroke="#132e65" stroke-width="1.5"></path><path d="M981.82 641.62L981.82 641.62" stroke="#132e65" stroke-width="1.5"></path><path d="M981.82 641.62L1101.26 685.45" stroke="#132e65" stroke-width="1.5"></path><path d="M1091.96 -59.73L1091.96 -59.73" stroke="#132e65" stroke-width="1.5"></path><path d="M1126.58 253.46L1126.58 253.46" stroke="#132e65" stroke-width="1.5"></path><path d="M1126.58 253.46L1092.02 361.79" stroke="#132e65" stroke-width="1.5"></path><path d="M1126.58 253.46L1303.48 234.09" stroke="#132e65" stroke-width="1.5"></path><path d="M1126.58 253.46L971.64 395.01" stroke="#132e65" stroke-width="1.5"></path><path d="M1126.58 253.46L1284.67 395.13" stroke="#132e65" stroke-width="1.5"></path><path d="M1092.02 361.79L1092.02 361.79" stroke="#132e65" stroke-width="1.5"></path><path d="M1149.34 524.46L1149.34 524.46" stroke="#132e65" stroke-width="1.5"></path><path d="M1149.34 524.46L1287.46 517.79" stroke="#132e65" stroke-width="1.5"></path><path d="M1149.34 524.46L984.75 542" stroke="#132e65" stroke-width="1.5"></path><path d="M1149.34 524.46L1101.26 685.45" stroke="#132e65" stroke-width="1.5"></path><path d="M1149.34 524.46L1092.02 361.79" stroke="#132e65" stroke-width="1.5"></path><path d="M1101.26 685.45L1101.26 685.45" stroke="#132e65" stroke-width="1.5"></path><path d="M1101.26 685.45L984.75 542" stroke="#132e65" stroke-width="1.5"></path><path d="M1101.26 685.45L1299.5 693.99" stroke="#132e65" stroke-width="1.5"></path><path d="M1299.31 -93.33L1299.31 -93.33" stroke="#132e65" stroke-width="1.5"></path><path d="M1299.31 -93.33L1398.4 -103.55" stroke="#132e65" stroke-width="1.5"></path><path d="M1299.31 -93.33L1312.33 87.05" stroke="#132e65" stroke-width="1.5"></path><path d="M1299.31 -93.33L1091.96 -59.73" stroke="#132e65" stroke-width="1.5"></path><path d="M1299.31 -93.33L1440.44 103.91" stroke="#132e65" stroke-width="1.5"></path><path d="M1299.31 -93.33L1550.1 -42.82" stroke="#132e65" stroke-width="1.5"></path><path d="M1312.33 87.05L1312.33 87.05" stroke="#132e65" stroke-width="1.5"></path><path d="M1312.33 87.05L1440.44 103.91" stroke="#132e65" stroke-width="1.5"></path><path d="M1312.33 87.05L1303.48 234.09" stroke="#132e65" stroke-width="1.5"></path><path d="M1312.33 87.05L1440.65 228.39" stroke="#132e65" stroke-width="1.5"></path><path d="M1312.33 87.05L1398.4 -103.55" stroke="#132e65" stroke-width="1.5"></path><path d="M1303.48 234.09L1303.48 234.09" stroke="#132e65" stroke-width="1.5"></path><path d="M1303.48 234.09L1440.65 228.39" stroke="#132e65" stroke-width="1.5"></path><path d="M1303.48 234.09L1407.58 350.36" stroke="#132e65" stroke-width="1.5"></path><path d="M1303.48 234.09L1284.67 395.13" stroke="#132e65" stroke-width="1.5"></path><path d="M1303.48 234.09L1440.44 103.91" stroke="#132e65" stroke-width="1.5"></path><path d="M1284.67 395.13L1284.67 395.13" stroke="#132e65" stroke-width="1.5"></path><path d="M1284.67 395.13L1287.46 517.79" stroke="#132e65" stroke-width="1.5"></path><path d="M1284.67 395.13L1407.58 350.36" stroke="#132e65" stroke-width="1.5"></path><path d="M1287.46 517.79L1287.46 517.79" stroke="#132e65" stroke-width="1.5"></path><path d="M1287.46 517.79L1299.5 693.99" stroke="#132e65" stroke-width="1.5"></path><path d="M1287.46 517.79L1391.1 691.32" stroke="#132e65" stroke-width="1.5"></path><path d="M1299.5 693.99L1299.5 693.99" stroke="#132e65" stroke-width="1.5"></path><path d="M1299.5 693.99L1391.1 691.32" stroke="#132e65" stroke-width="1.5"></path><path d="M1398.4 -103.55L1398.4 -103.55" stroke="#132e65" stroke-width="1.5"></path><path d="M1398.4 -103.55L1550.1 -42.82" stroke="#132e65" stroke-width="1.5"></path><path d="M1440.44 103.91L1440.44 103.91" stroke="#132e65" stroke-width="1.5"></path><path d="M1440.44 103.91L1440.65 228.39" stroke="#132e65" stroke-width="1.5"></path><path d="M1440.44 103.91L1569.18 102.24" stroke="#132e65" stroke-width="1.5"></path><path d="M1440.44 103.91L1550.1 -42.82" stroke="#132e65" stroke-width="1.5"></path><path d="M1440.44 103.91L1558.22 249.03" stroke="#132e65" stroke-width="1.5"></path><path d="M1440.65 228.39L1440.65 228.39" stroke="#132e65" stroke-width="1.5"></path><path d="M1440.65 228.39L1558.22 249.03" stroke="#132e65" stroke-width="1.5"></path><path d="M1440.65 228.39L1407.58 350.36" stroke="#132e65" stroke-width="1.5"></path><path d="M1440.65 228.39L1569.18 102.24" stroke="#132e65" stroke-width="1.5"></path><path d="M1407.58 350.36L1407.58 350.36" stroke="#132e65" stroke-width="1.5"></path><path d="M1391.1 691.32L1391.1 691.32" stroke="#132e65" stroke-width="1.5"></path><path d="M1391.1 691.32L1597.26 668.16" stroke="#132e65" stroke-width="1.5"></path><path d="M1550.1 -42.82L1550.1 -42.82" stroke="#132e65" stroke-width="1.5"></path><path d="M1550.1 -42.82L1569.18 102.24" stroke="#132e65" stroke-width="1.5"></path><path d="M1569.18 102.24L1569.18 102.24" stroke="#132e65" stroke-width="1.5"></path><path d="M1558.22 249.03L1558.22 249.03" stroke="#132e65" stroke-width="1.5"></path><path d="M1558.22 249.03L1572.26 364.95" stroke="#132e65" stroke-width="1.5"></path><path d="M1572.26 364.95L1572.26 364.95" stroke="#132e65" stroke-width="1.5"></path><path d="M1572.26 364.95L1547.03 522.78" stroke="#132e65" stroke-width="1.5"></path><path d="M1547.03 522.78L1547.03 522.78" stroke="#132e65" stroke-width="1.5"></path><path d="M1547.03 522.78L1597.26 668.16" stroke="#132e65" stroke-width="1.5"></path><path d="M1547.03 522.78L1407.58 350.36" stroke="#132e65" stroke-width="1.5"></path><path d="M1547.03 522.78L1391.1 691.32" stroke="#132e65" stroke-width="1.5"></path><path d="M1547.03 522.78L1287.46 517.79" stroke="#132e65" stroke-width="1.5"></path><path d="M1597.26 668.16L1597.26 668.16" stroke="#132e65" stroke-width="1.5"></path><path d="M1597.26 668.16L1299.5 693.99" stroke="#132e65" stroke-width="1.5"></path><path d="M1597.26 668.16L1572.26 364.95" stroke="#132e65" stroke-width="1.5"></path><circle r="5" cx="-75.17" cy="370.67" fill="#132e65"></circle><circle r="5" cx="-99.37" cy="538.23" fill="#132e65"></circle><circle r="5" cx="-73.11" cy="667.35" fill="#132e65"></circle><circle r="5" cx="78.68" cy="370.02" fill="#132e65"></circle><circle r="5" cx="71.01" cy="557.72" fill="#132e65"></circle><circle r="5" cx="101.96" cy="645.51" fill="#132e65"></circle><circle r="5" cx="235.26" cy="345.52" fill="#132e65"></circle><circle r="5" cx="259.61" cy="523.36" fill="#132e65"></circle><circle r="5" cx="200.42" cy="645.26" fill="#132e65"></circle><circle r="5" cx="404.83" cy="402.5" fill="#132e65"></circle><circle r="5" cx="410" cy="545.41" fill="#132e65"></circle><circle r="5" cx="394.49" cy="654.29" fill="#132e65"></circle><circle r="5" cx="526.76" cy="553.31" fill="#132e65"></circle><circle r="5" cx="560.4" cy="654.83" fill="#132e65"></circle><circle r="5" cx="656.67" cy="235.87" fill="#132e65"></circle><circle r="5" cx="704.29" cy="365.88" fill="#132e65"></circle><circle r="5" cx="687.06" cy="541.44" fill="#132e65"></circle><circle r="5" cx="695.25" cy="681.06" fill="#132e65"></circle><circle r="5" cx="823.59" cy="253.82" fill="#132e65"></circle><circle r="5" cx="816.4" cy="387.52" fill="#132e65"></circle><circle r="5" cx="831.65" cy="530.41" fill="#132e65"></circle><circle r="5" cx="812.81" cy="711.46" fill="#132e65"></circle><circle r="5" cx="981.68" cy="-96.83" fill="#132e65"></circle><circle r="5" cx="1011.45" cy="228.27" fill="#132e65"></circle><circle r="5" cx="971.64" cy="395.01" fill="#132e65"></circle><circle r="5" cx="984.75" cy="542" fill="#132e65"></circle><circle r="5" cx="981.82" cy="641.62" fill="#132e65"></circle><circle r="5" cx="1091.96" cy="-59.73" fill="#132e65"></circle><circle r="5" cx="1126.58" cy="253.46" fill="#132e65"></circle><circle r="5" cx="1092.02" cy="361.79" fill="#132e65"></circle><circle r="5" cx="1149.34" cy="524.46" fill="#132e65"></circle><circle r="5" cx="1101.26" cy="685.45" fill="#132e65"></circle><circle r="5" cx="1299.31" cy="-93.33" fill="#132e65"></circle><circle r="5" cx="1312.33" cy="87.05" fill="#132e65"></circle><circle r="5" cx="1303.48" cy="234.09" fill="#132e65"></circle><circle r="5" cx="1284.67" cy="395.13" fill="#132e65"></circle><circle r="5" cx="1287.46" cy="517.79" fill="#132e65"></circle><circle r="5" cx="1299.5" cy="693.99" fill="#132e65"></circle><circle r="5" cx="1398.4" cy="-103.55" fill="#132e65"></circle><circle r="5" cx="1440.44" cy="103.91" fill="#132e65"></circle><circle r="5" cx="1440.65" cy="228.39" fill="#132e65"></circle><circle r="5" cx="1407.58" cy="350.36" fill="#132e65"></circle><circle r="5" cx="1391.1" cy="691.32" fill="#132e65"></circle><circle r="5" cx="1550.1" cy="-42.82" fill="#132e65"></circle><circle r="5" cx="1569.18" cy="102.24" fill="#132e65"></circle><circle r="5" cx="1558.22" cy="249.03" fill="#132e65"></circle><circle r="5" cx="1572.26" cy="364.95" fill="#132e65"></circle><circle r="5" cx="1547.03" cy="522.78" fill="#132e65"></circle><circle r="5" cx="1597.26" cy="668.16" fill="#132e65"></circle><path d="M549.34 642.55L549.34 642.55" stroke="hsl(228.5, 77.2%, 51.5%)" stroke-width="1.5"></path><path d="M549.34 642.55L650.74 691.05" stroke="hsl(228.5, 77.2%, 51.5%)" stroke-width="1.5"></path><path d="M549.34 642.55L502.54 530.53" stroke="hsl(228.5, 77.2%, 51.5%)" stroke-width="1.5"></path><path d="M549.34 642.55L373.24 665.11" stroke="hsl(228.5, 77.2%, 51.5%)" stroke-width="1.5"></path><path d="M549.34 642.55L703.16 518.73" stroke="hsl(228.5, 77.2%, 51.5%)" stroke-width="1.5"></path><path d="M549.34 642.55L351.6 503.87" stroke="hsl(228.5, 77.2%, 51.5%)" stroke-width="1.5"></path><path d="M549.34 642.55L818.64 651.18" stroke="hsl(228.5, 77.2%, 51.5%)" stroke-width="1.5"></path><path d="M657.33 385.81L657.33 385.81" stroke="hsl(228.5, 77.2%, 51.5%)" stroke-width="1.5"></path><path d="M657.33 385.81L703.16 518.73" stroke="hsl(228.5, 77.2%, 51.5%)" stroke-width="1.5"></path><path d="M657.33 385.81L858.55 376.69" stroke="hsl(228.5, 77.2%, 51.5%)" stroke-width="1.5"></path><path d="M657.33 385.81L502.54 530.53" stroke="hsl(228.5, 77.2%, 51.5%)" stroke-width="1.5"></path><path d="M657.33 385.81L549.34 642.55" stroke="hsl(228.5, 77.2%, 51.5%)" stroke-width="1.5"></path><path d="M657.33 385.81L953.95 410.48" stroke="hsl(228.5, 77.2%, 51.5%)" stroke-width="1.5"></path><path d="M657.33 385.81L650.74 691.05" stroke="hsl(228.5, 77.2%, 51.5%)" stroke-width="1.5"></path><path d="M1398.44 -81.37L1398.44 -81.37" stroke="hsl(228.5, 77.2%, 51.5%)" stroke-width="1.5"></path><path d="M1398.44 -81.37L1290.06 -59.69" stroke="hsl(228.5, 77.2%, 51.5%)" stroke-width="1.5"></path><path d="M1398.44 -81.37L1394.82 89.48" stroke="hsl(228.5, 77.2%, 51.5%)" stroke-width="1.5"></path><path d="M1398.44 -81.37L1579.45 -83.01" stroke="hsl(228.5, 77.2%, 51.5%)" stroke-width="1.5"></path><path d="M1562.11 215.91L1562.11 215.91" stroke="hsl(228.5, 77.2%, 51.5%)" stroke-width="1.5"></path><path d="M1562.11 215.91L1445.05 209.5" stroke="hsl(228.5, 77.2%, 51.5%)" stroke-width="1.5"></path><path d="M1562.11 215.91L1595.67 346.57" stroke="hsl(228.5, 77.2%, 51.5%)" stroke-width="1.5"></path><path d="M1562.11 215.91L1412.72 342.86" stroke="hsl(228.5, 77.2%, 51.5%)" stroke-width="1.5"></path><path d="M1562.11 215.91L1394.82 89.48" stroke="hsl(228.5, 77.2%, 51.5%)" stroke-width="1.5"></path><path d="M1562.11 215.91L1304.86 90.35" stroke="hsl(228.5, 77.2%, 51.5%)" stroke-width="1.5"></path><path d="M1562.11 215.91L1562.57 503.92" stroke="hsl(228.5, 77.2%, 51.5%)" stroke-width="1.5"></path><path d="M-75.82 521.05L-75.82 521.05" stroke="hsl(228.5, 77.2%, 51.5%)" stroke-width="1.5"></path><path d="M-75.82 521.05L73.45 493.45" stroke="hsl(228.5, 77.2%, 51.5%)" stroke-width="1.5"></path><path d="M-75.82 521.05L-80.6 688.67" stroke="hsl(228.5, 77.2%, 51.5%)" stroke-width="1.5"></path><path d="M-75.82 521.05L82.77 680.64" stroke="hsl(228.5, 77.2%, 51.5%)" stroke-width="1.5"></path><path d="M-75.82 521.05L240.72 519.96" stroke="hsl(228.5, 77.2%, 51.5%)" stroke-width="1.5"></path><path d="M-75.82 521.05L226.75 712.49" stroke="hsl(228.5, 77.2%, 51.5%)" stroke-width="1.5"></path><path d="M-75.82 521.05L351.6 503.87" stroke="hsl(228.5, 77.2%, 51.5%)" stroke-width="1.5"></path><path d="M-80.6 688.67L-80.6 688.67" stroke="hsl(228.5, 77.2%, 51.5%)" stroke-width="1.5"></path><path d="M-80.6 688.67L82.77 680.64" stroke="hsl(228.5, 77.2%, 51.5%)" stroke-width="1.5"></path><path d="M-80.6 688.67L73.45 493.45" stroke="hsl(228.5, 77.2%, 51.5%)" stroke-width="1.5"></path><path d="M-80.6 688.67L226.75 712.49" stroke="hsl(228.5, 77.2%, 51.5%)" stroke-width="1.5"></path><path d="M73.45 493.45L73.45 493.45" stroke="hsl(228.5, 77.2%, 51.5%)" stroke-width="1.5"></path><path d="M73.45 493.45L240.72 519.96" stroke="hsl(228.5, 77.2%, 51.5%)" stroke-width="1.5"></path><path d="M73.45 493.45L82.77 680.64" stroke="hsl(228.5, 77.2%, 51.5%)" stroke-width="1.5"></path><path d="M82.77 680.64L82.77 680.64" stroke="hsl(228.5, 77.2%, 51.5%)" stroke-width="1.5"></path><path d="M82.77 680.64L226.75 712.49" stroke="hsl(228.5, 77.2%, 51.5%)" stroke-width="1.5"></path><path d="M240.72 519.96L240.72 519.96" stroke="hsl(228.5, 77.2%, 51.5%)" stroke-width="1.5"></path><path d="M240.72 519.96L351.6 503.87" stroke="hsl(228.5, 77.2%, 51.5%)" stroke-width="1.5"></path><path d="M240.72 519.96L226.75 712.49" stroke="hsl(228.5, 77.2%, 51.5%)" stroke-width="1.5"></path><path d="M240.72 519.96L373.24 665.11" stroke="hsl(228.5, 77.2%, 51.5%)" stroke-width="1.5"></path><path d="M240.72 519.96L82.77 680.64" stroke="hsl(228.5, 77.2%, 51.5%)" stroke-width="1.5"></path><path d="M240.72 519.96L502.54 530.53" stroke="hsl(228.5, 77.2%, 51.5%)" stroke-width="1.5"></path><path d="M226.75 712.49L226.75 712.49" stroke="hsl(228.5, 77.2%, 51.5%)" stroke-width="1.5"></path><path d="M351.6 503.87L351.6 503.87" stroke="hsl(228.5, 77.2%, 51.5%)" stroke-width="1.5"></path><path d="M351.6 503.87L502.54 530.53" stroke="hsl(228.5, 77.2%, 51.5%)" stroke-width="1.5"></path><path d="M351.6 503.87L373.24 665.11" stroke="hsl(228.5, 77.2%, 51.5%)" stroke-width="1.5"></path><path d="M351.6 503.87L226.75 712.49" stroke="hsl(228.5, 77.2%, 51.5%)" stroke-width="1.5"></path><path d="M351.6 503.87L73.45 493.45" stroke="hsl(228.5, 77.2%, 51.5%)" stroke-width="1.5"></path><path d="M373.24 665.11L373.24 665.11" stroke="hsl(228.5, 77.2%, 51.5%)" stroke-width="1.5"></path><path d="M373.24 665.11L226.75 712.49" stroke="hsl(228.5, 77.2%, 51.5%)" stroke-width="1.5"></path><path d="M373.24 665.11L502.54 530.53" stroke="hsl(228.5, 77.2%, 51.5%)" stroke-width="1.5"></path><path d="M373.24 665.11L650.74 691.05" stroke="hsl(228.5, 77.2%, 51.5%)" stroke-width="1.5"></path><path d="M502.54 530.53L502.54 530.53" stroke="hsl(228.5, 77.2%, 51.5%)" stroke-width="1.5"></path><path d="M502.54 530.53L703.16 518.73" stroke="hsl(228.5, 77.2%, 51.5%)" stroke-width="1.5"></path><path d="M703.16 518.73L703.16 518.73" stroke="hsl(228.5, 77.2%, 51.5%)" stroke-width="1.5"></path><path d="M703.16 518.73L818.64 651.18" stroke="hsl(228.5, 77.2%, 51.5%)" stroke-width="1.5"></path><path d="M703.16 518.73L650.74 691.05" stroke="hsl(228.5, 77.2%, 51.5%)" stroke-width="1.5"></path><path d="M650.74 691.05L650.74 691.05" stroke="hsl(228.5, 77.2%, 51.5%)" stroke-width="1.5"></path><path d="M650.74 691.05L818.64 651.18" stroke="hsl(228.5, 77.2%, 51.5%)" stroke-width="1.5"></path><path d="M650.74 691.05L502.54 530.53" stroke="hsl(228.5, 77.2%, 51.5%)" stroke-width="1.5"></path><path d="M858.55 376.69L858.55 376.69" stroke="hsl(228.5, 77.2%, 51.5%)" stroke-width="1.5"></path><path d="M858.55 376.69L953.95 410.48" stroke="hsl(228.5, 77.2%, 51.5%)" stroke-width="1.5"></path><path d="M858.55 376.69L971.41 497.44" stroke="hsl(228.5, 77.2%, 51.5%)" stroke-width="1.5"></path><path d="M858.55 376.69L703.16 518.73" stroke="hsl(228.5, 77.2%, 51.5%)" stroke-width="1.5"></path><path d="M818.64 651.18L818.64 651.18" stroke="hsl(228.5, 77.2%, 51.5%)" stroke-width="1.5"></path><path d="M818.64 651.18L973.51 681.69" stroke="hsl(228.5, 77.2%, 51.5%)" stroke-width="1.5"></path><path d="M953.95 410.48L953.95 410.48" stroke="hsl(228.5, 77.2%, 51.5%)" stroke-width="1.5"></path><path d="M953.95 410.48L971.41 497.44" stroke="hsl(228.5, 77.2%, 51.5%)" stroke-width="1.5"></path><path d="M953.95 410.48L1127.21 363.91" stroke="hsl(228.5, 77.2%, 51.5%)" stroke-width="1.5"></path><path d="M971.41 497.44L971.41 497.44" stroke="hsl(228.5, 77.2%, 51.5%)" stroke-width="1.5"></path><path d="M971.41 497.44L1151.47 534.78" stroke="hsl(228.5, 77.2%, 51.5%)" stroke-width="1.5"></path><path d="M971.41 497.44L973.51 681.69" stroke="hsl(228.5, 77.2%, 51.5%)" stroke-width="1.5"></path><path d="M971.41 497.44L1127.21 363.91" stroke="hsl(228.5, 77.2%, 51.5%)" stroke-width="1.5"></path><path d="M971.41 497.44L818.64 651.18" stroke="hsl(228.5, 77.2%, 51.5%)" stroke-width="1.5"></path><path d="M973.51 681.69L973.51 681.69" stroke="hsl(228.5, 77.2%, 51.5%)" stroke-width="1.5"></path><path d="M973.51 681.69L1108.84 698.45" stroke="hsl(228.5, 77.2%, 51.5%)" stroke-width="1.5"></path><path d="M973.51 681.69L1151.47 534.78" stroke="hsl(228.5, 77.2%, 51.5%)" stroke-width="1.5"></path><path d="M973.51 681.69L953.95 410.48" stroke="hsl(228.5, 77.2%, 51.5%)" stroke-width="1.5"></path><path d="M973.51 681.69L703.16 518.73" stroke="hsl(228.5, 77.2%, 51.5%)" stroke-width="1.5"></path><path d="M1159.9 -51.16L1159.9 -51.16" stroke="hsl(228.5, 77.2%, 51.5%)" stroke-width="1.5"></path><path d="M1159.9 -51.16L1290.06 -59.69" stroke="hsl(228.5, 77.2%, 51.5%)" stroke-width="1.5"></path><path d="M1159.9 -51.16L1304.86 90.35" stroke="hsl(228.5, 77.2%, 51.5%)" stroke-width="1.5"></path><path d="M1159.9 -51.16L1398.44 -81.37" stroke="hsl(228.5, 77.2%, 51.5%)" stroke-width="1.5"></path><path d="M1159.9 -51.16L1119.37 206.61" stroke="hsl(228.5, 77.2%, 51.5%)" stroke-width="1.5"></path><path d="M1119.37 206.61L1119.37 206.61" stroke="hsl(228.5, 77.2%, 51.5%)" stroke-width="1.5"></path><path d="M1119.37 206.61L1266.7 247.93" stroke="hsl(228.5, 77.2%, 51.5%)" stroke-width="1.5"></path><path d="M1119.37 206.61L1127.21 363.91" stroke="hsl(228.5, 77.2%, 51.5%)" stroke-width="1.5"></path><path d="M1127.21 363.91L1127.21 363.91" stroke="hsl(228.5, 77.2%, 51.5%)" stroke-width="1.5"></path><path d="M1127.21 363.91L1237.54 357.49" stroke="hsl(228.5, 77.2%, 51.5%)" stroke-width="1.5"></path><path d="M1127.21 363.91L1151.47 534.78" stroke="hsl(228.5, 77.2%, 51.5%)" stroke-width="1.5"></path><path d="M1127.21 363.91L1266.7 247.93" stroke="hsl(228.5, 77.2%, 51.5%)" stroke-width="1.5"></path><path d="M1151.47 534.78L1151.47 534.78" stroke="hsl(228.5, 77.2%, 51.5%)" stroke-width="1.5"></path><path d="M1151.47 534.78L1291.83 527.48" stroke="hsl(228.5, 77.2%, 51.5%)" stroke-width="1.5"></path><path d="M1151.47 534.78L1108.84 698.45" stroke="hsl(228.5, 77.2%, 51.5%)" stroke-width="1.5"></path><path d="M1151.47 534.78L1237.54 357.49" stroke="hsl(228.5, 77.2%, 51.5%)" stroke-width="1.5"></path><path d="M1108.84 698.45L1108.84 698.45" stroke="hsl(228.5, 77.2%, 51.5%)" stroke-width="1.5"></path><path d="M1290.06 -59.69L1290.06 -59.69" stroke="hsl(228.5, 77.2%, 51.5%)" stroke-width="1.5"></path><path d="M1290.06 -59.69L1304.86 90.35" stroke="hsl(228.5, 77.2%, 51.5%)" stroke-width="1.5"></path><path d="M1290.06 -59.69L1394.82 89.48" stroke="hsl(228.5, 77.2%, 51.5%)" stroke-width="1.5"></path><path d="M1304.86 90.35L1304.86 90.35" stroke="hsl(228.5, 77.2%, 51.5%)" stroke-width="1.5"></path><path d="M1304.86 90.35L1394.82 89.48" stroke="hsl(228.5, 77.2%, 51.5%)" stroke-width="1.5"></path><path d="M1304.86 90.35L1266.7 247.93" stroke="hsl(228.5, 77.2%, 51.5%)" stroke-width="1.5"></path><path d="M1304.86 90.35L1445.05 209.5" stroke="hsl(228.5, 77.2%, 51.5%)" stroke-width="1.5"></path><path d="M1266.7 247.93L1266.7 247.93" stroke="hsl(228.5, 77.2%, 51.5%)" stroke-width="1.5"></path><path d="M1266.7 247.93L1237.54 357.49" stroke="hsl(228.5, 77.2%, 51.5%)" stroke-width="1.5"></path><path d="M1266.7 247.93L1412.72 342.86" stroke="hsl(228.5, 77.2%, 51.5%)" stroke-width="1.5"></path><path d="M1237.54 357.49L1237.54 357.49" stroke="hsl(228.5, 77.2%, 51.5%)" stroke-width="1.5"></path><path d="M1291.83 527.48L1291.83 527.48" stroke="hsl(228.5, 77.2%, 51.5%)" stroke-width="1.5"></path><path d="M1291.83 527.48L1450.03 521.69" stroke="hsl(228.5, 77.2%, 51.5%)" stroke-width="1.5"></path><path d="M1291.83 527.48L1237.54 357.49" stroke="hsl(228.5, 77.2%, 51.5%)" stroke-width="1.5"></path><path d="M1291.83 527.48L1306.35 709" stroke="hsl(228.5, 77.2%, 51.5%)" stroke-width="1.5"></path><path d="M1291.83 527.48L1452.36 664.67" stroke="hsl(228.5, 77.2%, 51.5%)" stroke-width="1.5"></path><path d="M1291.83 527.48L1412.72 342.86" stroke="hsl(228.5, 77.2%, 51.5%)" stroke-width="1.5"></path><path d="M1306.35 709L1306.35 709" stroke="hsl(228.5, 77.2%, 51.5%)" stroke-width="1.5"></path><path d="M1306.35 709L1452.36 664.67" stroke="hsl(228.5, 77.2%, 51.5%)" stroke-width="1.5"></path><path d="M1306.35 709L1108.84 698.45" stroke="hsl(228.5, 77.2%, 51.5%)" stroke-width="1.5"></path><path d="M1306.35 709L1151.47 534.78" stroke="hsl(228.5, 77.2%, 51.5%)" stroke-width="1.5"></path><path d="M1306.35 709L1450.03 521.69" stroke="hsl(228.5, 77.2%, 51.5%)" stroke-width="1.5"></path><path d="M1306.35 709L1556.42 682.6" stroke="hsl(228.5, 77.2%, 51.5%)" stroke-width="1.5"></path><path d="M1394.82 89.48L1394.82 89.48" stroke="hsl(228.5, 77.2%, 51.5%)" stroke-width="1.5"></path><path d="M1394.82 89.48L1445.05 209.5" stroke="hsl(228.5, 77.2%, 51.5%)" stroke-width="1.5"></path><path d="M1445.05 209.5L1445.05 209.5" stroke="hsl(228.5, 77.2%, 51.5%)" stroke-width="1.5"></path><path d="M1412.72 342.86L1412.72 342.86" stroke="hsl(228.5, 77.2%, 51.5%)" stroke-width="1.5"></path><path d="M1412.72 342.86L1445.05 209.5" stroke="hsl(228.5, 77.2%, 51.5%)" stroke-width="1.5"></path><path d="M1412.72 342.86L1237.54 357.49" stroke="hsl(228.5, 77.2%, 51.5%)" stroke-width="1.5"></path><path d="M1450.03 521.69L1450.03 521.69" stroke="hsl(228.5, 77.2%, 51.5%)" stroke-width="1.5"></path><path d="M1450.03 521.69L1562.57 503.92" stroke="hsl(228.5, 77.2%, 51.5%)" stroke-width="1.5"></path><path d="M1452.36 664.67L1452.36 664.67" stroke="hsl(228.5, 77.2%, 51.5%)" stroke-width="1.5"></path><path d="M1452.36 664.67L1556.42 682.6" stroke="hsl(228.5, 77.2%, 51.5%)" stroke-width="1.5"></path><path d="M1452.36 664.67L1450.03 521.69" stroke="hsl(228.5, 77.2%, 51.5%)" stroke-width="1.5"></path><path d="M1579.45 -83.01L1579.45 -83.01" stroke="hsl(228.5, 77.2%, 51.5%)" stroke-width="1.5"></path><path d="M1579.45 -83.01L1394.82 89.48" stroke="hsl(228.5, 77.2%, 51.5%)" stroke-width="1.5"></path><path d="M1579.45 -83.01L1290.06 -59.69" stroke="hsl(228.5, 77.2%, 51.5%)" stroke-width="1.5"></path><path d="M1595.67 346.57L1595.67 346.57" stroke="hsl(228.5, 77.2%, 51.5%)" stroke-width="1.5"></path><path d="M1595.67 346.57L1562.57 503.92" stroke="hsl(228.5, 77.2%, 51.5%)" stroke-width="1.5"></path><path d="M1562.57 503.92L1562.57 503.92" stroke="hsl(228.5, 77.2%, 51.5%)" stroke-width="1.5"></path><path d="M1562.57 503.92L1556.42 682.6" stroke="hsl(228.5, 77.2%, 51.5%)" stroke-width="1.5"></path><path d="M1562.57 503.92L1452.36 664.67" stroke="hsl(228.5, 77.2%, 51.5%)" stroke-width="1.5"></path><path d="M1562.57 503.92L1412.72 342.86" stroke="hsl(228.5, 77.2%, 51.5%)" stroke-width="1.5"></path><path d="M1556.42 682.6L1556.42 682.6" stroke="hsl(228.5, 77.2%, 51.5%)" stroke-width="1.5"></path><path d="M1556.42 682.6L1450.03 521.69" stroke="hsl(228.5, 77.2%, 51.5%)" stroke-width="1.5"></path><circle r="25" cx="549.34" cy="642.55" fill="url(&quot;#SvgjsRadialGradient1001&quot;)"></circle><circle r="25" cx="657.33" cy="385.81" fill="url(&quot;#SvgjsRadialGradient1001&quot;)"></circle><circle r="25" cx="1398.44" cy="-81.37" fill="url(&quot;#SvgjsRadialGradient1001&quot;)"></circle><circle r="25" cx="1562.11" cy="215.91" fill="url(&quot;#SvgjsRadialGradient1001&quot;)"></circle><circle r="5" cx="-75.82" cy="521.05" fill="#8b9ad9"></circle><circle r="5" cx="-80.6" cy="688.67" fill="#8b9ad9"></circle><circle r="5" cx="73.45" cy="493.45" fill="#8b9ad9"></circle><circle r="5" cx="82.77" cy="680.64" fill="#8b9ad9"></circle><circle r="5" cx="240.72" cy="519.96" fill="#8b9ad9"></circle><circle r="5" cx="226.75" cy="712.49" fill="#8b9ad9"></circle><circle r="5" cx="351.6" cy="503.87" fill="#8b9ad9"></circle><circle r="5" cx="373.24" cy="665.11" fill="#8b9ad9"></circle><circle r="5" cx="502.54" cy="530.53" fill="#8b9ad9"></circle><circle r="5" cx="703.16" cy="518.73" fill="#8b9ad9"></circle><circle r="5" cx="650.74" cy="691.05" fill="#8b9ad9"></circle><circle r="5" cx="858.55" cy="376.69" fill="#8b9ad9"></circle><circle r="5" cx="818.64" cy="651.18" fill="#8b9ad9"></circle><circle r="5" cx="953.95" cy="410.48" fill="#8b9ad9"></circle><circle r="5" cx="971.41" cy="497.44" fill="#8b9ad9"></circle><circle r="5" cx="973.51" cy="681.69" fill="#8b9ad9"></circle><circle r="5" cx="1159.9" cy="-51.16" fill="#8b9ad9"></circle><circle r="5" cx="1119.37" cy="206.61" fill="#8b9ad9"></circle><circle r="5" cx="1127.21" cy="363.91" fill="#8b9ad9"></circle><circle r="5" cx="1151.47" cy="534.78" fill="#8b9ad9"></circle><circle r="5" cx="1108.84" cy="698.45" fill="#8b9ad9"></circle><circle r="5" cx="1290.06" cy="-59.69" fill="#8b9ad9"></circle><circle r="5" cx="1304.86" cy="90.35" fill="#8b9ad9"></circle><circle r="5" cx="1266.7" cy="247.93" fill="#8b9ad9"></circle><circle r="5" cx="1237.54" cy="357.49" fill="#8b9ad9"></circle><circle r="5" cx="1291.83" cy="527.48" fill="#8b9ad9"></circle><circle r="5" cx="1306.35" cy="709" fill="#8b9ad9"></circle><circle r="5" cx="1394.82" cy="89.48" fill="#8b9ad9"></circle><circle r="5" cx="1445.05" cy="209.5" fill="#8b9ad9"></circle><circle r="5" cx="1412.72" cy="342.86" fill="#8b9ad9"></circle><circle r="5" cx="1450.03" cy="521.69" fill="#8b9ad9"></circle><circle r="5" cx="1452.36" cy="664.67" fill="#8b9ad9"></circle><circle r="5" cx="1579.45" cy="-83.01" fill="#8b9ad9"></circle><circle r="5" cx="1595.67" cy="346.57" fill="#8b9ad9"></circle><circle r="5" cx="1562.57" cy="503.92" fill="#8b9ad9"></circle><circle r="5" cx="1556.42" cy="682.6" fill="#8b9ad9"></circle></g><defs><mask id="SvgjsMask1000"><rect width="1440" height="560" fill="#ffffff"></rect></mask><radialGradient id="SvgjsRadialGradient1001"><stop stop-color="#ffffff" offset="0.1"></stop><stop stop-color="#1735b3" offset="0.2"></stop><stop stop-color="rgba(23, 53, 179, 0)" offset="1"></stop></radialGradient></defs></svg>